<?xml version="1.0" standalone="no"?>
<!DOCTYPE svg PUBLIC "-//W3C//DTD SVG 20010904//EN"
 "http://www.w3.org/TR/2001/REC-SVG-20010904/DTD/svg10.dtd">
<svg version="1.0" xmlns="http://www.w3.org/2000/svg"
 width="120.000000pt" height="125.000000pt" viewBox="0 0 120.000000 125.000000"
 preserveAspectRatio="xMidYMid meet">

<g transform="translate(0.000000,125.000000) scale(0.100000,-0.100000)"
fill="#000000" stroke="none">
<path d="M305 1159 c-27 -3 -66 -13 -86 -22 -43 -19 -116 -96 -125 -131 -3
-14 -10 -26 -15 -26 -5 0 -9 -154 -9 -355 0 -204 4 -355 9 -355 5 0 14 -13 19
-28 15 -44 66 -96 123 -125 l51 -27 337 0 337 0 58 31 c54 30 116 96 116 124
0 7 7 18 15 25 13 11 15 63 15 356 0 221 -4 345 -10 349 -6 4 -16 21 -24 38
-21 51 -62 92 -118 121 l-53 26 -295 2 c-162 2 -317 0 -345 -3z m645 -99 c47
-28 71 -54 91 -99 17 -40 19 -68 19 -336 0 -313 -4 -339 -53 -393 -45 -49 -67
-51 -396 -52 -327 -1 -345 1 -394 48 -55 52 -57 67 -57 406 l0 312 26 41 c30
45 71 73 124 84 19 4 166 7 325 6 238 -2 294 -5 315 -17z"/>
<path d="M858 966 c-11 -8 -18 -27 -18 -49 0 -70 83 -89 115 -27 16 31 8 64
-19 82 -17 12 -59 9 -78 -6z"/>
<path d="M525 882 c-57 -20 -109 -60 -142 -110 -34 -52 -36 -59 -37 -141 -1
-70 3 -93 20 -126 52 -97 124 -139 239 -139 115 -1 177 32 239 129 14 21 21
54 24 108 7 119 -30 197 -121 254 -33 21 -56 26 -121 29 -45 2 -90 0 -101 -4z
m166 -97 c16 -9 43 -34 59 -57 26 -35 30 -50 30 -103 0 -52 -4 -68 -29 -102
-53 -73 -154 -95 -233 -51 -59 33 -83 79 -83 158 0 56 4 70 28 101 15 20 42
44 60 53 41 20 129 20 168 1z"/>
</g>
</svg>
