<?xml version="1.0" standalone="no"?>
<!DOCTYPE svg PUBLIC "-//W3C//DTD SVG 20010904//EN"
 "http://www.w3.org/TR/2001/REC-SVG-20010904/DTD/svg10.dtd">
<svg version="1.0" xmlns="http://www.w3.org/2000/svg"
 width="120.000000pt" height="125.000000pt" viewBox="0 0 120.000000 125.000000"
 preserveAspectRatio="xMidYMid meet">

<g transform="translate(0.000000,125.000000) scale(0.100000,-0.100000)"
fill="#000000" stroke="none">
<path d="M360 1141 c-115 -44 -194 -112 -243 -206 -30 -56 -32 -66 -31 -165 0
-95 3 -110 29 -160 15 -30 43 -72 61 -93 32 -35 34 -42 34 -108 0 -39 5 -79
11 -90 9 -18 13 -19 32 -6 104 67 133 77 228 77 167 0 276 48 359 159 154 205
72 477 -174 582 -60 26 -79 29 -164 28 -66 -1 -111 -6 -142 -18z m234 -56 c50
-8 135 -56 171 -97 77 -86 104 -205 70 -311 -22 -69 -86 -144 -157 -182 -47
-25 -66 -29 -178 -34 -115 -6 -128 -8 -164 -33 -22 -15 -43 -25 -48 -22 -4 3
-8 27 -8 53 0 41 -5 52 -34 80 -19 18 -49 63 -67 99 -99 202 37 424 277 451
38 5 76 7 84 5 8 -1 33 -5 54 -9z"/>
<path d="M263 814 c-7 -3 -13 -19 -13 -35 0 -22 7 -32 26 -41 36 -17 59 0 59
43 0 31 -3 34 -30 36 -16 1 -36 0 -42 -3z"/>
<path d="M459 799 c-23 -44 26 -89 67 -61 19 12 27 52 14 67 -19 23 -67 19
-81 -6z"/>
<path d="M660 801 c-14 -27 -13 -37 6 -55 23 -23 51 -20 69 8 13 19 14 29 5
45 -14 28 -65 29 -80 2z"/>
<path d="M987 824 c-13 -13 -7 -38 27 -108 46 -95 52 -131 31 -201 -21 -74
-53 -124 -110 -171 -42 -35 -45 -42 -45 -86 0 -26 -4 -49 -9 -53 -6 -3 -33 8
-60 25 -46 29 -56 31 -105 25 -60 -8 -96 1 -192 46 -35 17 -71 28 -85 25 -13
-3 -26 -5 -28 -5 -14 -2 60 -65 94 -80 80 -37 97 -41 182 -41 84 0 86 -1 162
-47 42 -26 78 -51 79 -55 2 -5 8 -6 13 -2 5 3 9 42 9 86 l0 81 54 57 c29 31
66 81 82 111 25 48 28 64 28 149 0 101 -9 130 -62 205 -27 39 -51 53 -65 39z"/>
</g>
</svg>
