<?xml version="1.0" standalone="no"?>
<!DOCTYPE svg PUBLIC "-//W3C//DTD SVG 20010904//EN"
 "http://www.w3.org/TR/2001/REC-SVG-20010904/DTD/svg10.dtd">
<svg version="1.0" xmlns="http://www.w3.org/2000/svg"
 width="1752.000000pt" height="1700.000000pt" viewBox="0 0 1752.000000 1700.000000"
 preserveAspectRatio="xMidYMid meet">

<g transform="translate(0.000000,1700.000000) scale(0.100000,-0.100000)"
fill="#000000" stroke="none">
<path d="M5495 16670 c3 -5 8 -10 11 -10 2 0 4 5 4 10 0 6 -5 10 -11 10 -5 0
-7 -4 -4 -10z"/>
<path d="M5550 16664 c-10 -11 -10 -14 1 -14 11 0 11 -2 1 -8 -9 -6 -5 -12 13
-20 37 -17 59 -15 80 8 16 18 16 20 1 26 -9 4 -20 4 -23 0 -3 -3 -11 -2 -17 3
-23 17 -45 19 -56 5z"/>
<path d="M5383 16602 c-22 -14 10 -37 102 -76 50 -21 113 -50 140 -64 28 -14
68 -31 90 -37 35 -11 40 -16 38 -41 -2 -30 -19 -45 -40 -37 -7 3 -13 0 -13 -6
0 -6 5 -11 10 -11 6 0 10 -7 10 -15 0 -19 61 -15 85 5 12 10 20 7 46 -19 34
-35 42 -37 61 -18 7 7 28 21 47 30 28 14 37 15 60 3 30 -15 118 -44 351 -116
251 -77 314 -97 449 -140 68 -22 131 -40 141 -40 10 0 20 -4 22 -8 4 -10 111
-43 155 -48 18 -2 46 -10 62 -19 17 -8 35 -15 40 -15 6 0 34 -11 63 -24 73
-33 165 -66 213 -76 22 -5 66 -20 98 -34 32 -14 63 -26 69 -26 12 0 213 -78
303 -118 102 -45 316 -157 405 -212 47 -28 97 -59 111 -68 14 -8 33 -28 41
-42 9 -15 50 -47 92 -71 50 -28 76 -49 76 -61 0 -13 15 -22 58 -34 31 -9 64
-23 73 -30 9 -8 42 -24 75 -35 55 -19 213 -97 224 -110 12 -14 193 -139 202
-139 5 0 35 -19 66 -43 32 -23 116 -80 187 -126 72 -47 161 -107 199 -135 l69
-51 -62 -6 c-60 -6 -96 -19 -53 -19 15 0 22 -6 22 -20 0 -17 -7 -20 -40 -20
-33 0 -40 3 -40 19 0 27 -21 37 -35 18 -9 -12 -14 -14 -23 -5 -9 9 -15 8 -25
-6 -13 -17 -31 -18 -323 -12 -497 10 -654 17 -744 32 -47 8 -102 14 -122 14
-20 0 -90 9 -155 20 -65 11 -134 21 -153 24 -154 19 -335 57 -608 125 -130 33
-266 65 -302 71 -65 11 -232 47 -347 75 -34 8 -81 15 -105 15 l-43 0 25 -20
c14 -11 41 -22 60 -26 19 -4 43 -13 52 -21 10 -9 24 -13 33 -10 8 4 15 1 15
-5 0 -6 3 -9 6 -5 3 3 18 -5 33 -19 18 -17 32 -23 46 -18 11 4 39 7 63 6 42
-1 292 -63 515 -128 169 -48 278 -72 462 -99 22 -4 72 -13 110 -20 39 -8 79
-14 90 -14 11 1 63 -6 115 -14 52 -8 129 -18 170 -22 41 -4 82 -9 90 -10 51
-9 163 -15 365 -20 546 -13 718 -19 810 -30 146 -18 366 -48 440 -60 113 -20
155 -32 280 -85 55 -23 109 -45 120 -50 11 -4 37 -16 59 -25 21 -9 44 -18 50
-19 37 -8 98 -31 106 -41 12 -15 -38 -23 -190 -31 -58 -3 -125 -7 -150 -9 -94
-7 -544 -5 -771 5 -244 9 -841 15 -1079 10 -129 -2 -304 -22 -287 -32 24 -13
190 -34 357 -45 36 -2 83 -6 105 -9 128 -15 436 -23 1200 -28 469 -4 566 -2
740 14 283 26 353 26 450 -5 44 -14 88 -30 97 -35 10 -6 29 -10 42 -10 13 0
27 -7 30 -16 3 -8 10 -13 15 -10 5 3 14 -1 21 -9 7 -8 28 -17 49 -21 20 -4 38
-10 41 -14 3 -5 14 -10 25 -12 11 -1 22 -5 25 -9 3 -3 23 -14 45 -26 106 -54
180 -95 205 -113 16 -11 33 -20 39 -20 6 0 42 -30 80 -66 49 -47 79 -87 105
-137 37 -74 253 -370 301 -412 7 -5 18 -21 25 -35 14 -26 121 -149 200 -229
25 -26 97 -102 160 -170 122 -131 369 -381 541 -547 98 -95 140 -134 372 -349
53 -49 144 -135 201 -190 56 -55 112 -107 122 -116 10 -9 29 -27 41 -40 12
-13 45 -44 73 -69 28 -25 57 -50 65 -57 7 -7 15 -9 19 -6 3 4 6 2 6 -4 0 -19
267 -280 283 -275 4 1 7 -3 7 -9 0 -12 73 -86 160 -162 30 -27 98 -90 150
-140 87 -85 199 -186 259 -233 14 -10 63 -56 110 -101 47 -44 122 -108 166
-142 44 -33 87 -66 95 -74 8 -8 35 -27 59 -42 34 -21 49 -25 61 -17 11 6 22 7
34 0 25 -14 66 -1 66 20 -1 9 -31 49 -68 88 -37 39 -98 104 -137 145 -38 42
-144 145 -234 230 -90 85 -197 195 -239 244 -41 50 -153 171 -248 270 -94 99
-189 201 -211 227 -21 26 -46 50 -55 53 -9 3 -26 21 -38 39 -11 19 -46 58 -78
87 -32 30 -67 66 -76 82 -16 24 -17 27 -2 27 9 0 16 -4 16 -10 0 -5 14 -22 32
-37 65 -56 121 -109 147 -138 14 -16 59 -64 100 -105 40 -41 90 -95 110 -120
55 -68 186 -200 199 -200 7 0 12 -6 12 -12 1 -37 585 -591 638 -604 12 -4 22
-10 22 -15 0 -5 17 -17 38 -27 20 -9 42 -22 48 -28 7 -6 29 -9 49 -8 21 2 45
-1 53 -5 9 -5 25 -4 39 2 52 23 26 57 -230 309 -133 131 -238 238 -234 238 4
0 54 -26 110 -58 225 -129 337 -180 417 -188 62 -6 69 6 40 68 -44 95 -295
351 -581 592 -158 134 -289 248 -289 252 0 6 33 -9 90 -41 107 -60 250 -127
274 -129 13 0 22 -3 20 -5 -15 -15 390 -180 445 -181 27 -1 95 -36 188 -96 48
-32 99 -59 114 -60 14 -1 36 -5 48 -9 57 -18 46 28 -19 75 -26 19 -46 37 -44
39 2 2 30 6 62 8 68 4 103 17 120 44 47 74 -104 208 -478 424 -130 76 -172
101 -463 282 -72 46 -139 86 -147 90 -8 3 -29 17 -46 30 -17 13 -34 23 -37 23
-3 0 -26 14 -50 30 -25 17 -48 30 -51 30 -4 0 -12 5 -19 11 -12 10 -253 167
-397 259 -97 62 -135 87 -221 146 -120 82 -591 395 -676 448 -65 41 -225 156
-283 203 -8 7 -32 25 -52 40 -108 82 -208 162 -248 198 -25 23 -85 72 -135
110 -49 38 -94 74 -100 80 -5 6 -57 49 -115 95 -206 165 -243 210 -314 390
-20 52 -41 103 -46 112 -6 10 -10 26 -10 36 0 10 -11 43 -26 73 -171 365 -254
492 -426 651 -246 227 -258 240 -258 279 0 34 2 36 28 32 27 -3 27 -3 3 7 -34
15 -19 23 21 12 41 -11 72 1 87 34 14 31 14 47 1 39 -5 -3 -10 0 -10 8 0 9
-13 17 -32 20 -18 4 -59 10 -91 16 -33 5 -61 11 -63 14 -2 2 3 23 11 47 17 49
15 55 -25 55 -20 0 -26 -4 -23 -15 3 -10 0 -9 -11 4 -8 10 -19 15 -24 12 -5
-3 -15 1 -23 10 -24 30 -46 34 -83 19 -44 -19 -50 -19 -42 0 4 11 -1 15 -18
15 -14 0 -26 -6 -29 -12 -4 -10 -8 -10 -23 0 -26 17 -78 41 -82 37 -2 -2 10
-30 27 -63 25 -49 29 -69 26 -110 -4 -46 -2 -50 19 -56 16 -4 25 -15 29 -36 4
-17 17 -44 29 -60 19 -26 27 -29 53 -24 27 5 34 1 50 -23 10 -15 27 -35 37
-44 10 -9 18 -24 18 -33 0 -9 5 -16 10 -16 6 0 10 -6 10 -13 0 -12 102 -145
191 -248 50 -58 119 -154 119 -166 0 -3 6 -14 14 -22 8 -9 34 -54 57 -101 24
-47 46 -86 51 -88 4 -2 8 -8 8 -14 0 -6 30 -69 66 -140 36 -72 63 -132 61
-135 -3 -2 -14 4 -25 15 -12 12 -32 28 -47 38 -28 18 -59 69 -51 83 3 5 -3 19
-14 31 -11 13 -20 20 -20 15 0 -4 -15 4 -34 19 -19 14 -44 26 -55 26 -12 0
-21 6 -21 13 0 8 -3 7 -10 -3 -7 -12 -12 -12 -35 0 -14 7 -24 19 -21 25 4 12
-22 14 -41 2 -6 -4 -14 -3 -18 3 -4 6 -10 8 -15 5 -4 -3 -13 2 -20 10 -18 22
-25 19 -28 -12 -1 -16 -7 -29 -12 -31 -21 -7 -8 -45 29 -83 33 -34 169 -113
196 -114 6 0 15 -9 21 -20 5 -11 18 -19 27 -19 9 1 17 -4 17 -12 0 -8 6 -13
13 -12 6 2 12 -4 12 -12 0 -8 18 -30 40 -49 75 -63 73 -73 -8 -39 -57 24 -410
194 -477 230 -53 28 -119 58 -128 58 -6 0 -12 4 -14 8 -3 10 -275 144 -282
140 -2 -2 -12 4 -22 13 -11 9 -35 22 -54 29 -19 8 -198 96 -398 196 -199 101
-388 193 -420 205 -274 105 -560 204 -712 248 -41 12 -88 26 -105 31 -16 5
-41 11 -55 14 -14 3 -52 12 -85 20 -33 8 -106 21 -162 30 -150 24 -318 91
-408 165 -241 195 -541 347 -989 501 -78 26 -172 59 -211 73 -38 14 -131 44
-205 67 -74 23 -148 47 -165 55 -34 15 -417 139 -570 184 -144 42 -369 115
-450 146 -38 14 -78 29 -87 32 -20 6 -32 33 -15 33 21 0 46 52 37 76 -12 30
-24 36 -89 41 -31 2 -67 5 -81 6 -14 1 -24 -3 -23 -8 1 -6 -7 -11 -18 -11 -10
0 -19 5 -19 11 0 5 -7 2 -14 -7 -7 -10 -16 -15 -19 -11 -4 3 -7 2 -7 -4 0 -32
-87 -15 -190 37 -58 29 -127 44 -147 32z m437 -132 c0 -5 -2 -10 -4 -10 -3 0
-8 5 -11 10 -3 6 -1 10 4 10 6 0 11 -4 11 -10z m38 -3 c13 5 14 3 5 -7 -13
-14 -33 -5 -32 13 0 9 2 9 5 0 3 -7 13 -9 22 -6z m3563 -1481 c8 -2 27 -8 42
-14 16 -7 31 -12 35 -12 4 0 72 -23 152 -52 133 -47 176 -71 164 -90 -9 -14
18 -19 45 -9 21 9 35 8 63 -3 20 -9 40 -21 44 -27 4 -7 3 -10 -2 -7 -5 3 -15
0 -22 -8 -16 -17 11 -36 92 -63 31 -11 238 -110 459 -219 499 -248 529 -262
545 -262 6 0 12 -4 12 -8 0 -9 70 -37 83 -34 4 1 7 -2 7 -7 0 -9 17 -18 138
-71 50 -23 67 -40 38 -40 -7 0 -45 13 -84 29 -39 16 -111 42 -159 56 -48 15
-140 47 -203 72 -63 24 -128 49 -145 55 -16 6 -58 24 -93 39 -34 16 -64 29
-67 29 -10 0 -460 212 -505 238 -25 14 -179 106 -343 204 -164 98 -301 178
-305 178 -4 0 -18 9 -32 20 l-25 21 26 -6 c14 -4 32 -7 40 -9z m769 -291 c25
-13 42 -24 38 -25 -11 0 -98 39 -98 45 0 9 14 5 60 -20z m330 -151 l25 -15
-25 7 c-14 3 -29 10 -34 15 -16 14 6 10 34 -7z m115 -54 c8 -13 -5 -13 -25 0
-13 8 -13 10 2 10 9 0 20 -4 23 -10z m-720 -45 c-1 -25 -5 -30 -25 -30 -19 0
-24 5 -22 20 6 37 12 46 29 43 13 -2 18 -12 18 -33z m115 -31 c38 -19 41 -23
20 -23 -48 -1 -115 23 -116 41 -2 22 30 16 96 -18z m773 -5 c110 -44 151 -62
252 -112 39 -19 85 -38 104 -42 19 -4 41 -14 49 -21 7 -8 24 -14 37 -14 13 0
30 -7 39 -15 8 -8 19 -15 25 -15 6 0 11 -5 11 -11 0 -6 9 -9 20 -6 13 3 30 -3
44 -16 27 -25 86 -50 86 -36 0 16 18 10 25 -8 5 -17 69 -53 93 -53 7 0 12 -5
12 -11 0 -8 -18 -10 -53 -7 -45 4 -114 35 -428 192 -206 103 -376 190 -378
192 -9 9 13 3 62 -17z m1312 -559 c40 -18 155 -129 155 -149 0 -13 -99 23
-190 69 -58 29 -99 59 -194 142 l-31 27 110 -35 c61 -20 128 -44 150 -54z m91
-171 c44 -18 85 -36 92 -42 15 -12 54 -88 48 -94 -2 -2 -50 28 -107 67 -160
111 -166 122 -33 69z m474 -621 c0 -4 7 -8 15 -8 8 0 15 -7 15 -14 0 -14 59
-66 74 -66 4 0 17 -9 29 -21 40 -38 70 -55 75 -41 6 20 22 14 22 -9 0 -11 5
-17 10 -14 6 3 10 0 10 -7 0 -7 17 -27 37 -43 20 -17 44 -37 53 -45 21 -19 78
-60 84 -60 2 0 19 -15 38 -32 19 -18 49 -44 67 -58 50 -38 251 -237 302 -299
24 -30 49 -59 54 -65 6 -6 44 -49 85 -96 41 -47 91 -101 111 -120 40 -39 74
-90 61 -90 -8 0 -53 37 -168 139 -23 20 -70 61 -105 91 -108 92 -297 280 -377
375 -78 92 -158 180 -224 244 -50 50 -180 131 -209 131 -16 0 -32 12 -46 33
-12 17 -32 44 -43 59 l-22 28 26 -2 c14 -1 26 -6 26 -10z m1233 -507 c128 -84
250 -162 272 -173 22 -11 52 -32 68 -46 15 -14 27 -22 27 -18 0 4 22 -11 49
-33 27 -23 52 -41 56 -41 4 0 41 -24 83 -54 43 -29 86 -56 98 -60 11 -3 29
-14 40 -24 10 -9 44 -33 74 -52 30 -19 60 -38 65 -42 30 -24 411 -258 419
-258 3 0 72 -44 153 -99 82 -54 204 -131 273 -171 69 -40 141 -83 160 -95 19
-12 80 -51 135 -86 118 -74 181 -123 196 -151 11 -21 10 -21 -67 -14 -106 10
-169 29 -232 74 -388 273 -609 425 -940 649 -162 109 -324 219 -360 245 -37
26 -76 51 -87 56 -11 6 -59 38 -106 73 -47 35 -125 91 -173 124 -393 270 -656
465 -656 486 0 8 89 -49 453 -290z m-443 -479 c0 -12 -140 120 -366 346 -90
89 -164 169 -164 177 0 8 119 -105 265 -251 146 -147 265 -269 265 -272z m550
199 c19 -14 41 -32 48 -39 8 -7 17 -10 22 -7 4 3 10 -2 14 -10 3 -8 12 -15 20
-15 7 0 16 -7 19 -14 3 -8 19 -22 36 -30 16 -9 44 -29 62 -46 19 -16 39 -30
45 -30 6 0 21 -9 34 -20 13 -11 27 -20 31 -20 5 0 26 -16 46 -37 21 -20 56
-44 78 -54 22 -10 48 -26 57 -36 28 -30 63 -53 126 -82 23 -11 42 -25 42 -30
0 -6 8 -11 18 -11 10 0 31 -13 47 -30 16 -16 32 -30 37 -30 4 0 65 -39 135
-88 71 -48 157 -105 193 -127 89 -53 146 -95 130 -95 -23 0 -395 205 -492 271
-15 11 -30 19 -34 19 -4 0 -37 20 -73 44 -36 24 -91 56 -121 71 -54 27 -102
58 -129 83 -8 8 -30 24 -50 37 -62 38 -153 115 -280 235 -139 131 -161 164
-61 91z m-154 -328 c-7 -7 -26 7 -26 19 0 6 6 6 15 -2 9 -7 13 -15 11 -17z
m434 -152 c0 -13 79 -48 128 -56 47 -8 107 -50 298 -213 39 -33 85 -73 102
-89 17 -15 56 -49 87 -73 30 -25 77 -64 103 -88 26 -23 59 -48 75 -55 15 -6
27 -20 27 -29 0 -10 19 -30 43 -44 23 -15 94 -75 158 -133 64 -58 154 -140
200 -181 47 -41 104 -99 128 -127 24 -29 48 -50 54 -46 5 3 7 1 4 -4 -4 -6 0
-16 8 -23 8 -7 15 -19 15 -27 0 -19 -136 54 -325 176 -82 53 -194 123 -247
155 -54 32 -103 65 -109 72 -6 8 -15 14 -20 14 -35 0 -249 202 -414 391 -49
57 -117 132 -151 168 -33 36 -87 95 -120 131 -32 36 -62 67 -66 68 -14 6 -8
22 7 22 8 0 15 -4 15 -9z"/>
<path d="M3460 15816 c-14 -8 -35 -20 -47 -25 -38 -17 -112 -130 -141 -216
-17 -50 -21 -77 -28 -190 -9 -161 -27 -238 -88 -392 -75 -187 -136 -304 -199
-380 -22 -27 -50 -65 -63 -86 -14 -20 -49 -67 -80 -102 -103 -122 -183 -289
-226 -474 -6 -25 -11 -98 -11 -161 -1 -105 1 -120 26 -175 15 -33 32 -67 37
-75 6 -8 20 -35 32 -60 35 -74 109 -157 228 -251 133 -107 284 -160 530 -185
133 -13 395 -18 480 -9 19 3 87 7 150 10 63 4 129 9 145 11 17 3 45 7 62 9 18
2 47 8 65 14 18 6 55 13 83 16 60 7 159 29 200 45 17 7 57 19 90 26 101 24
260 77 267 88 4 6 8 7 8 3 0 -5 16 0 36 12 19 12 42 21 50 21 8 0 14 5 14 10
0 6 7 10 15 10 23 0 65 22 65 34 0 7 10 18 21 26 48 33 79 63 79 75 0 8 11 25
25 39 14 14 25 32 25 41 0 8 4 15 8 15 8 0 24 35 52 122 26 79 56 301 41 306
-6 2 -9 7 -6 11 11 19 -72 233 -100 255 -7 6 -16 25 -20 41 -3 17 -13 37 -20
45 -7 8 -15 20 -16 25 -4 13 -17 30 -49 62 -30 31 -170 126 -170 117 0 -4 -10
1 -22 12 -57 50 -95 62 -228 71 -105 7 -133 4 -143 -12 -4 -8 -13 -12 -20 -9
-20 7 -60 -42 -60 -73 -1 -47 12 -152 29 -222 13 -59 13 -94 0 -186 -9 -62
-116 -227 -197 -305 -109 -105 -213 -179 -273 -194 -31 -8 -72 8 -98 37 -33
37 -98 181 -100 217 -2 67 24 156 74 250 50 95 125 223 158 270 31 45 118 223
158 325 85 217 114 351 118 532 3 122 1 148 -16 185 -12 27 -17 53 -13 72 5
24 3 28 -10 23 -14 -5 -17 0 -17 23 0 37 -17 83 -29 76 -5 -3 -11 8 -15 24 -3
17 -11 30 -18 30 -7 0 -26 14 -41 30 -16 17 -36 30 -45 30 -8 0 -23 6 -31 14
-9 7 -43 23 -76 34 -82 28 -183 38 -460 47 -140 5 -174 3 -195 -9z"/>
<path d="M9994 15107 c-6 -7 -9 -18 -7 -24 2 -6 -5 -14 -16 -18 -22 -7 -27
-20 -11 -30 6 -3 5 -15 -2 -30 -14 -31 -5 -42 25 -27 12 6 36 13 52 14 23 2
29 7 27 22 -2 11 1 15 8 11 6 -4 10 -16 8 -27 -4 -27 27 -48 44 -30 11 11 10
16 -4 26 -24 18 -23 29 2 21 17 -5 20 -2 20 24 0 16 -5 33 -10 36 -6 4 -8 10
-5 15 5 8 -70 30 -102 30 -10 -1 -23 -6 -29 -13z"/>
<path d="M9845 15072 c-8 -21 -6 -60 3 -66 15 -9 67 11 64 24 -2 7 6 19 18 27
11 8 20 18 20 23 0 15 -99 7 -105 -8z"/>
<path d="M6794 14748 c3 -9 1 -18 -3 -20 -13 -5 -24 -48 -12 -48 6 0 11 5 11
10 0 6 11 15 25 20 14 5 25 15 25 21 0 6 -7 9 -15 5 -8 -3 -19 3 -25 12 -11
16 -11 16 -6 0z"/>
<path d="M11780 14369 c0 -18 2 -19 15 -9 15 12 12 30 -6 30 -5 0 -9 -10 -9
-21z"/>
<path d="M11841 14347 c2 -1 12 -9 22 -16 15 -12 17 -12 11 3 -3 9 -13 16 -22
16 -8 0 -13 -1 -11 -3z"/>
<path d="M8185 12833 c-119 -5 -481 -34 -545 -44 -36 -6 -99 -14 -140 -19 -41
-5 -136 -18 -210 -30 -74 -11 -193 -27 -265 -35 -71 -9 -173 -22 -225 -31 -52
-8 -126 -20 -165 -26 -38 -6 -137 -24 -220 -40 -82 -17 -170 -34 -195 -38 -77
-14 -150 -28 -295 -59 -236 -49 -287 -62 -306 -71 -10 -6 -30 -10 -44 -10 -25
0 -172 -34 -280 -65 -27 -8 -72 -17 -100 -20 -27 -4 -124 -24 -215 -44 -199
-46 -337 -74 -490 -101 -63 -11 -162 -31 -220 -45 -178 -41 -388 -83 -545
-110 -82 -14 -180 -32 -216 -40 -37 -8 -82 -15 -100 -15 -19 0 -83 -9 -144
-19 -123 -21 -277 -37 -315 -33 -14 2 -37 17 -52 33 -15 16 -34 29 -42 29 -9
0 -48 34 -87 75 -39 41 -77 75 -84 75 -6 0 -22 11 -35 25 -13 14 -30 25 -39
25 -8 0 -42 13 -75 29 -103 50 -218 97 -281 114 -104 28 -280 47 -435 47 -132
0 -156 -3 -206 -22 -124 -50 -205 -178 -199 -314 5 -89 109 -369 166 -443 76
-99 259 -243 430 -339 20 -11 45 -25 55 -31 11 -6 42 -20 69 -31 28 -12 59
-25 70 -31 11 -5 31 -11 45 -13 14 -3 25 -5 25 -6 0 -1 12 -3 27 -5 14 -2 59
-13 100 -24 40 -11 87 -22 103 -25 17 -2 32 -5 35 -6 3 -1 10 -3 15 -4 6 -1
24 -5 40 -9 44 -11 92 -17 164 -23 35 -2 67 -7 72 -10 12 -7 334 -6 412 2 34
3 107 12 161 20 55 8 102 12 104 9 3 -3 6 -26 7 -52 2 -53 19 -162 40 -263 8
-36 17 -81 21 -100 3 -19 16 -51 27 -70 12 -19 20 -36 18 -38 -6 -5 64 -167
79 -182 3 -3 11 -16 18 -30 7 -14 29 -43 48 -65 20 -22 47 -56 61 -76 36 -53
119 -120 161 -130 30 -6 38 -5 50 12 17 24 28 24 49 -1 32 -37 64 -26 134 47
61 63 95 110 118 160 6 12 26 45 46 73 40 56 52 101 65 235 15 143 11 193 -24
360 -33 157 -56 303 -50 320 4 11 102 35 224 55 31 5 83 16 115 25 33 9 89 23
125 31 36 8 86 19 113 25 50 12 68 5 87 -32 6 -9 14 -93 20 -186 5 -92 12
-196 15 -230 3 -35 7 -100 9 -145 2 -46 6 -119 10 -163 11 -144 17 -258 21
-390 3 -71 7 -179 10 -239 7 -129 17 -716 15 -866 -3 -230 0 -351 15 -610 4
-83 29 -242 40 -259 2 -5 12 -40 20 -77 9 -38 17 -77 20 -88 2 -10 11 -26 19
-35 8 -9 19 -34 25 -56 6 -22 36 -85 67 -139 31 -55 60 -110 64 -122 5 -12 24
-42 42 -67 25 -35 40 -46 61 -46 15 -1 27 -6 27 -11 0 -6 8 -5 19 2 16 10 23
9 39 -6 13 -11 22 -14 27 -7 3 6 16 11 29 11 60 0 236 264 299 450 31 90 116
390 146 515 12 50 29 114 38 144 8 30 19 79 23 110 5 31 13 83 19 116 5 33 12
98 15 145 3 47 8 117 11 155 13 200 7 610 -15 920 -7 94 -12 186 -11 205 1 52
-28 300 -50 420 -22 120 -56 251 -93 360 -14 41 -35 107 -47 145 -11 39 -32
94 -45 123 -13 29 -24 55 -24 59 0 4 -6 14 -14 22 -20 24 -29 71 -14 75 7 2
45 13 83 24 106 32 177 47 352 77 18 3 42 9 55 14 13 4 46 11 73 15 28 4 86
16 130 26 44 10 118 26 165 35 167 32 585 132 685 164 129 42 571 192 590 201
75 35 155 70 160 70 6 0 46 18 197 89 48 23 92 41 97 41 5 0 31 13 58 29 26
15 82 48 123 72 41 24 99 65 127 91 29 26 70 58 91 71 63 40 67 50 47 102 -13
34 -22 45 -39 45 -12 0 -31 7 -43 15 -16 12 -79 17 -285 24 -144 5 -274 8
-288 8 -14 -1 -52 -3 -85 -4z"/>
<path d="M8635 11894 c-27 -8 -60 -16 -72 -18 -38 -6 -88 -52 -116 -107 -25
-47 -26 -56 -16 -88 6 -20 16 -41 21 -48 5 -7 7 -16 5 -21 -3 -4 9 -26 26 -49
27 -34 57 -88 109 -196 10 -20 17 -58 53 -262 30 -172 28 -153 60 -500 9 -93
18 -181 20 -196 8 -44 14 -253 8 -281 -4 -21 -9 -25 -22 -18 -111 61 -252 90
-461 96 l-165 5 -138 -41 c-76 -22 -144 -40 -152 -40 -19 0 -19 13 -1 70 38
119 51 206 50 340 -1 224 -28 309 -122 375 -31 22 -73 46 -92 53 -19 7 -54 19
-77 27 -48 18 -264 34 -404 32 -73 -2 -101 -6 -115 -18 -11 -9 -35 -19 -55
-23 -24 -4 -54 -22 -84 -50 -44 -41 -46 -46 -39 -81 3 -20 22 -62 40 -92 18
-30 38 -79 44 -109 12 -56 5 -221 -10 -239 -4 -5 -8 -12 -8 -15 -1 -3 -5 -18
-11 -33 -6 -16 -11 -32 -11 -37 0 -4 -7 -21 -15 -36 -8 -16 -12 -37 -9 -46 3
-10 0 -18 -6 -18 -7 0 -10 -8 -7 -20 3 -11 1 -20 -5 -20 -6 0 -7 -7 -4 -16 3
-8 2 -23 -4 -33 -24 -46 -28 -115 -10 -186 20 -78 41 -114 95 -159 84 -71 146
-101 230 -112 106 -13 180 -26 260 -44 63 -15 340 -15 420 -1 111 19 120 21
170 27 65 8 174 38 213 58 17 9 55 21 84 27 66 13 137 45 144 64 4 8 15 15 25
15 41 0 204 145 217 192 16 61 30 43 31 -39 2 -203 12 -633 15 -678 2 -27 6
-135 10 -240 3 -104 11 -239 16 -300 5 -60 12 -141 15 -180 7 -100 15 -182 21
-240 3 -27 7 -135 9 -239 3 -200 8 -216 49 -194 12 6 24 15 27 20 3 4 20 3 38
-3 37 -13 47 -4 82 71 35 78 132 263 140 270 4 3 21 37 39 75 17 39 42 93 56
120 13 28 24 58 24 68 0 9 4 17 8 17 5 0 19 37 31 83 29 100 86 298 113 389
10 37 24 93 29 125 5 32 13 78 18 103 6 25 10 66 11 91 0 26 7 66 15 89 11 32
13 52 6 77 -6 22 -6 44 0 60 8 22 12 104 7 168 -2 27 0 177 4 350 2 77 0 147
-5 155 -5 9 -4 27 4 45 7 17 11 35 9 40 -2 6 -5 57 -6 115 -1 58 -4 137 -7
175 -3 39 -9 129 -12 200 -4 72 -10 144 -15 160 -11 37 -50 274 -54 334 -4 42
-16 93 -38 153 -6 15 -11 47 -12 71 -1 28 -10 54 -24 72 -12 15 -22 34 -22 41
0 35 -104 154 -134 154 -7 0 -30 13 -50 29 -24 19 -54 32 -84 36 -26 4 -67 13
-92 21 -67 21 -273 26 -335 8z"/>
<path d="M10420 11790 c0 -5 -17 -18 -39 -29 -21 -11 -57 -41 -79 -66 -47 -54
-49 -81 -13 -172 27 -70 35 -127 33 -258 -1 -124 -4 -148 -32 -299 -20 -111
-36 -177 -51 -211 -4 -11 -13 -49 -19 -84 -6 -35 -17 -73 -25 -85 -24 -37 -46
-128 -55 -226 -5 -52 -18 -147 -29 -210 -12 -63 -21 -134 -21 -156 0 -23 -6
-59 -13 -80 -6 -22 -11 -58 -9 -81 3 -40 5 -43 43 -55 32 -9 45 -9 60 0 16 10
19 9 19 -4 0 -14 8 -16 49 -12 46 5 56 11 160 108 109 102 191 195 191 218 0
7 5 12 10 12 6 0 10 4 10 10 0 5 16 31 36 57 20 26 43 64 51 85 8 21 19 38 24
38 5 0 18 -19 30 -42 19 -39 153 -178 170 -178 4 0 30 -20 59 -44 66 -57 119
-67 304 -61 118 3 141 1 151 -12 8 -11 29 -15 76 -15 54 0 75 6 134 37 39 20
84 51 100 69 17 19 37 36 45 39 9 2 33 39 53 80 34 69 36 79 31 135 -4 37 -12
63 -20 66 -8 3 -14 11 -14 18 0 44 -104 198 -134 198 -6 0 -31 18 -56 40 -25
22 -51 40 -57 40 -7 0 -13 4 -13 9 0 9 -27 22 -57 27 -7 1 -19 9 -28 17 -8 9
-35 26 -60 38 -25 12 -45 26 -45 31 0 4 -8 8 -18 8 -10 0 -34 11 -53 25 -19
15 -76 47 -126 72 -51 25 -93 49 -93 53 0 6 -21 16 -50 24 -3 0 -18 10 -33 21
l-27 20 -3 260 -2 260 -33 61 c-39 73 -115 155 -157 172 -52 20 -127 33 -139
24 -12 -10 -31 -9 -91 7 -51 13 -145 14 -145 1z"/>
<path d="M13210 9406 c-3 -2 -104 -7 -225 -11 -121 -3 -296 -10 -390 -15 -206
-11 -789 -26 -1400 -35 -110 -2 -254 -9 -320 -17 -195 -21 -741 -13 -1015 17
-35 3 -100 -20 -100 -36 0 -5 -15 -15 -33 -23 -64 -26 -138 -148 -139 -228 -1
-51 33 -113 84 -151 37 -29 138 -77 213 -102 28 -9 65 -24 83 -32 27 -13 37
-14 57 -3 19 10 27 10 46 -4 12 -8 32 -13 44 -10 11 3 115 -5 230 -16 214 -22
311 -26 445 -15 41 3 111 8 155 10 44 2 109 6 145 9 36 3 108 9 160 12 217 14
274 19 540 49 74 8 169 19 210 25 41 5 116 12 165 16 206 13 597 73 677 103
13 4 82 20 153 35 72 14 160 33 196 41 37 8 73 15 81 15 8 0 41 9 74 21 32 11
89 29 126 39 36 10 79 25 95 33 15 8 53 20 83 26 30 6 85 23 121 37 64 25 66
27 82 77 18 60 10 78 -41 82 -16 1 -34 5 -39 8 -5 3 -75 11 -154 16 -79 6
-166 13 -194 15 -124 12 -211 17 -215 12z"/>
<path d="M13700 7455 c-25 -13 -54 -28 -65 -33 -39 -18 -79 -89 -79 -141 0
-54 20 -135 43 -171 9 -14 27 -46 41 -72 13 -27 28 -48 32 -48 5 0 8 -6 8 -13
0 -7 38 -51 85 -96 47 -46 85 -87 85 -92 0 -4 14 -22 31 -41 51 -55 56 -62 63
-90 3 -16 10 -28 15 -28 5 0 13 -15 17 -32 3 -18 15 -44 25 -57 11 -13 19 -32
19 -41 0 -10 7 -23 15 -30 8 -7 15 -23 15 -35 0 -12 9 -33 19 -46 23 -30 51
-95 51 -119 0 -10 11 -51 25 -92 14 -40 25 -90 25 -111 0 -21 6 -53 14 -72 8
-19 17 -63 20 -99 4 -36 13 -96 23 -133 9 -37 17 -93 18 -123 2 -30 5 -89 8
-130 3 -41 8 -158 11 -259 4 -115 10 -189 17 -198 7 -8 9 -30 6 -58 -4 -24 -2
-47 3 -50 5 -3 7 -31 5 -63 -1 -31 1 -65 6 -74 6 -11 4 -31 -7 -58 -12 -31
-14 -47 -6 -68 6 -15 10 -70 11 -122 0 -86 16 -254 26 -270 2 -4 7 -45 10 -91
8 -128 14 -180 22 -192 4 -7 8 -16 10 -22 1 -5 13 -59 28 -120 14 -60 29 -128
34 -150 15 -68 61 -239 72 -267 6 -15 19 -34 30 -44 17 -16 21 -16 32 -2 20
26 46 29 66 9 18 -18 20 -18 49 -1 16 10 40 33 53 52 12 18 36 46 51 62 15 17
28 35 28 42 0 7 6 19 13 26 20 20 83 110 106 154 12 21 30 53 41 69 10 17 28
50 40 75 12 25 26 53 31 64 6 10 19 44 29 76 10 32 23 66 28 76 13 25 48 144
66 224 14 60 27 118 31 130 7 25 16 93 17 130 0 25 5 50 9 56 9 11 15 69 24
234 9 151 15 175 47 173 25 -1 39 -7 169 -75 36 -18 83 -35 105 -38 90 -9 331
-3 374 9 52 15 175 74 194 94 30 29 78 142 83 193 5 51 -10 114 -27 114 -4 0
-20 19 -36 42 -31 46 -60 78 -70 78 -3 0 -29 12 -58 26 -76 39 -182 73 -261
85 -202 29 -300 39 -393 40 -65 2 -105 6 -107 13 -2 6 -6 42 -10 80 -3 39 -14
104 -25 145 -10 42 -28 132 -41 201 -20 114 -41 205 -83 361 -8 31 -26 78 -40
104 -15 26 -26 58 -26 71 0 13 -4 25 -9 28 -4 3 -11 20 -15 37 -3 17 -17 44
-31 61 -14 16 -25 38 -25 49 0 10 -6 19 -14 19 -7 0 -24 30 -38 68 -14 37 -44
94 -66 126 -48 68 -151 177 -202 215 -36 26 -81 64 -109 91 -26 24 -155 87
-169 82 -7 -2 -21 3 -30 11 -9 8 -33 18 -52 22 -19 4 -44 12 -55 18 -51 29
-100 39 -225 47 -218 15 -249 13 -300 -15z"/>
<path d="M9670 7206 c-76 -14 -148 -40 -245 -89 -92 -46 -240 -110 -290 -125
-22 -6 -80 -23 -130 -37 -49 -14 -97 -30 -106 -35 -15 -8 -155 -43 -289 -74
-258 -57 -333 -94 -361 -175 -27 -76 84 -176 216 -196 17 -2 66 -11 110 -19
88 -15 254 -19 325 -6 25 4 90 17 145 28 55 12 143 28 195 36 52 9 119 23 148
31 30 9 57 14 60 10 12 -12 -40 -166 -98 -290 -10 -22 -32 -70 -48 -106 -141
-309 -247 -479 -453 -725 -120 -144 -260 -336 -295 -406 -19 -37 -43 -104 -54
-149 -10 -44 -26 -100 -36 -124 -15 -42 -15 -46 0 -70 14 -22 24 -25 64 -24
26 0 68 -2 94 -6 60 -9 130 12 215 66 34 21 66 39 70 39 8 0 234 175 264 204
9 9 20 16 26 16 6 0 31 16 55 36 23 20 60 50 81 67 20 17 37 36 37 42 0 6 15
25 33 42 88 82 207 212 207 227 0 9 7 16 15 16 9 0 19 10 24 23 5 12 18 31 30
41 11 11 21 25 21 33 0 7 7 13 16 13 8 0 20 14 25 30 6 17 15 30 20 30 5 0 14
11 21 24 25 56 73 32 90 -45 40 -185 42 -263 8 -394 -13 -50 -16 -83 -11 -98
10 -25 11 -31 11 -50 0 -23 55 -97 81 -111 60 -31 196 -44 402 -38 83 2 181
24 193 43 3 5 14 9 25 9 10 0 19 4 19 8 0 5 16 14 35 22 19 8 35 17 35 22 0 4
7 8 14 8 14 0 66 59 66 74 0 5 8 20 19 34 10 15 22 43 26 62 4 19 11 40 15 45
30 40 40 344 13 377 -7 8 -10 24 -7 35 3 12 -1 34 -9 50 -8 15 -20 40 -26 56
-6 15 -17 27 -26 27 -8 0 -15 7 -15 15 0 8 -23 37 -51 65 -41 41 -56 50 -75
46 -17 -5 -26 -1 -34 14 -6 11 -19 20 -29 20 -10 0 -24 7 -31 15 -7 9 -37 27
-66 41 -30 14 -57 31 -61 39 -13 21 -126 50 -214 53 -20 1 -48 11 -62 22 -24
19 -25 23 -12 48 33 68 85 210 87 240 1 15 5 32 8 37 6 10 19 53 41 135 6 25
15 72 19 105 12 91 36 205 54 253 38 105 28 178 -32 238 -24 24 -93 53 -126
52 -5 0 -12 5 -15 10 -15 24 -365 37 -471 18z"/>
<path d="M13215 5742 c-20 -4 -30 -8 -135 -52 -30 -13 -111 -43 -180 -67
l-125 -45 -125 4 c-289 7 -314 3 -370 -57 -21 -22 -25 -36 -24 -81 1 -48 6
-59 41 -97 90 -98 106 -132 138 -302 21 -111 19 -162 -10 -247 -14 -40 -25
-86 -25 -101 0 -76 70 -145 135 -133 19 4 63 0 100 -9 93 -21 362 -21 476 1
48 10 94 14 103 11 12 -5 16 -21 17 -64 1 -85 4 -101 21 -120 9 -10 19 -28 23
-41 5 -17 11 -21 27 -16 12 3 24 1 28 -6 6 -10 15 -9 40 4 18 9 46 16 61 16
35 0 87 34 125 83 16 21 39 51 52 67 33 41 68 111 102 202 24 62 31 102 38
210 5 73 8 153 7 178 -12 224 -16 271 -30 304 -11 26 -13 42 -6 55 6 10 8 21
5 23 -2 3 -6 19 -9 37 -2 17 -11 38 -19 47 -9 8 -16 21 -16 28 0 7 -11 23 -25
36 -14 13 -25 31 -25 40 0 24 -70 70 -106 70 -16 0 -45 4 -64 9 -38 10 -213
19 -245 13z m-35 -382 c31 -17 42 -84 44 -270 2 -96 6 -187 10 -202 6 -20 3
-31 -12 -46 -21 -21 -53 -23 -134 -7 -42 8 -46 19 -27 90 28 110 27 275 -2
352 -15 41 -10 50 36 63 25 7 48 17 51 21 7 11 11 11 34 -1z"/>
<path d="M12059 4715 c-4 -3 -67 -8 -140 -10 -150 -5 -462 -43 -467 -56 -2 -5
-20 -9 -40 -9 -21 0 -69 -7 -107 -16 -69 -16 -88 -19 -295 -48 -104 -15 -413
-76 -480 -95 -19 -6 -79 -17 -133 -26 -54 -9 -106 -20 -115 -25 -20 -12 -142
-38 -230 -51 -35 -4 -68 -12 -75 -16 -7 -4 -28 -8 -47 -9 -19 0 -60 -8 -90
-17 -56 -17 -194 -45 -330 -67 -41 -7 -147 -25 -235 -41 -88 -16 -173 -32
-190 -34 -75 -14 -771 -1 -910 16 -44 5 -109 12 -145 15 -36 2 -125 16 -198
30 -171 33 -351 32 -417 -3 -45 -24 -119 -106 -121 -133 -1 -10 -4 -26 -8 -35
-9 -24 13 -100 35 -124 10 -11 19 -23 19 -27 0 -32 213 -164 265 -164 11 0 26
-5 31 -10 6 -6 24 -13 40 -15 16 -3 81 -14 145 -24 63 -10 171 -22 240 -26 68
-3 216 -16 329 -27 206 -20 303 -25 590 -26 279 -1 402 10 545 47 22 6 72 11
111 11 70 0 73 -1 103 -35 17 -20 31 -42 31 -50 0 -8 6 -18 13 -22 8 -4 22
-33 32 -63 10 -30 23 -71 31 -90 7 -19 20 -84 29 -145 9 -60 25 -165 36 -233
19 -120 25 -378 17 -737 -2 -74 -1 -281 2 -395 1 -47 1 -89 -1 -95 -1 -5 0
-14 1 -20 1 -5 4 -37 6 -70 6 -94 14 -131 25 -114 7 10 8 6 3 -14 -4 -16 -1
-33 6 -42 6 -8 9 -19 5 -25 -3 -5 -1 -10 4 -10 6 0 11 -7 11 -15 0 -8 14 -28
30 -43 17 -16 30 -34 30 -41 0 -6 4 -11 9 -11 6 0 11 -15 13 -32 2 -20 8 -32
16 -31 6 2 12 -4 12 -12 0 -8 -4 -15 -10 -15 -14 0 -13 -13 3 -34 13 -18 15
-18 39 -2 25 16 27 16 58 -15 l32 -33 19 25 c10 13 19 28 19 33 0 4 19 27 41
50 68 67 124 138 154 191 15 28 35 61 45 75 56 79 176 366 200 475 5 22 16 74
25 115 40 189 66 680 46 861 -7 57 -18 164 -26 236 -20 188 -49 287 -141 481
-37 80 -39 88 -23 98 13 8 124 38 349 95 145 36 293 83 367 115 17 8 34 14 38
14 4 0 21 6 38 14 18 8 93 37 167 66 131 50 246 101 321 141 20 10 44 19 53
19 9 0 24 4 34 9 9 5 33 17 52 25 19 9 46 25 60 35 14 10 63 41 109 67 85 50
191 142 191 166 0 8 -6 23 -14 34 -13 17 -29 19 -148 22 -73 2 -136 1 -139 -3z"/>
<path d="M14537 3234 c-1 -1 -56 -4 -122 -8 -66 -3 -133 -8 -150 -11 -16 -3
-82 -5 -145 -5 -72 0 -144 -5 -190 -15 -126 -28 -262 -35 -428 -24 -160 11
-192 7 -233 -31 -9 -8 -29 -23 -44 -34 -39 -27 -68 -98 -60 -146 13 -77 112
-157 235 -190 25 -7 54 -16 65 -21 74 -33 492 -48 668 -25 119 16 135 14 142
-18 34 -164 39 -571 10 -806 -2 -19 -6 -53 -9 -75 -2 -22 -7 -51 -10 -65 -3
-14 -7 -50 -10 -80 -3 -30 -10 -91 -17 -135 -12 -91 -15 -110 -23 -180 -3 -27
-8 -68 -10 -90 -10 -83 -18 -256 -20 -435 -1 -102 -4 -190 -8 -195 -6 -9 13
-109 42 -224 6 -24 10 -56 9 -70 -4 -54 1 -67 32 -78 23 -9 38 -9 57 -1 15 6
34 10 43 9 17 -2 41 24 87 96 27 42 106 146 175 231 21 26 54 74 73 107 20 33
46 75 60 94 14 19 27 46 31 60 3 14 14 38 24 53 11 14 19 31 19 37 0 12 29 62
41 71 11 9 59 116 59 133 0 9 16 47 35 86 20 39 40 94 45 123 6 29 15 57 20
62 6 6 10 25 10 42 0 18 4 35 9 38 14 9 30 93 36 191 7 108 22 211 36 236 5
10 9 67 9 126 -1 59 0 119 1 133 0 14 2 57 3 97 1 40 4 75 8 78 13 13 -27 383
-53 482 -35 135 -113 273 -155 273 -8 0 -17 6 -20 14 -5 12 -15 18 -59 31 -5
2 -26 10 -46 18 -33 15 -262 49 -272 41z"/>
</g>
</svg>
