<svg width="16" height="15" viewBox="0 0 16 15" fill="none" xmlns="http://www.w3.org/2000/svg">
<path d="M1 9V11C1 12.6569 2.34315 14 4 14H12C13.6569 14 15 12.6569 15 11V9" stroke="#989898" stroke-linecap="round"/>
<path d="M7.5 10C7.5 10.2761 7.72386 10.5 8 10.5C8.27614 10.5 8.5 10.2761 8.5 10L7.5 10ZM8.35355 0.646446C8.15829 0.451184 7.84171 0.451184 7.64645 0.646446L4.46447 3.82843C4.2692 4.02369 4.2692 4.34027 4.46447 4.53553C4.65973 4.7308 4.97631 4.7308 5.17157 4.53553L8 1.70711L10.8284 4.53553C11.0237 4.7308 11.3403 4.7308 11.5355 4.53553C11.7308 4.34027 11.7308 4.02369 11.5355 3.82843L8.35355 0.646446ZM8.5 10L8.5 1L7.5 1L7.5 10L8.5 10Z" fill="#989898"/>
</svg>
